<?xml version="1.0" encoding="utf-8"?>
<!-- Generator: Adobe Illustrator 19.0.0, SVG Export Plug-In . SVG Version: 6.00 Build 0)  -->
<svg version="1.1" id="Layer_1" xmlns="http://www.w3.org/2000/svg" xmlns:xlink="http://www.w3.org/1999/xlink" x="0px" y="0px"
	 viewBox="0 0 96 96" style="enable-background:new 0 0 96 96;" xml:space="preserve">
<style type="text/css">
	.st0{fill:#333333;}
</style>
<g id="XMLID_2_">
	<path id="XMLID_4_" class="st0" d="M54.7,18c-3.8,0-6.9,3.1-6.9,7c0,1.7,0.6,3.2,1.6,4.4V31H32.2v18.8h-2.4c-1.2-1-2.7-2.2-4.3-2.2
		c-3.8,0-7,3.1-7,7c0,3.9,3.1,7,7,7c1.6,0,3.1-1.1,4.2-2h2.4l0.1,16.7V78h16.7v-3c-0.9-1.2-1.1-3.2-1.1-4.8c0-3.9,3.1-7,6.9-7
		c3.8,0,6.9,3.1,6.9,7c0,1.7-0.3,3.6-1.2,4.8v3h17.1V59.6h-3c-1.2,1-2.7,2-4.3,2c-3.8,0-6.9-3.1-6.9-7c0-3.9,3.1-7,6.9-7
		c1.6,0,3.1,1.2,4.3,2.2h3V31H60.1v-1.6c0.9-1.2,1.5-2.8,1.5-4.4C61.6,21.1,58.5,18,54.7,18L54.7,18z"/>
</g>
</svg>
